<svg xmlns="http://www.w3.org/2000/svg" width="800" height="800" aria-hidden="true" class="iconify iconify--twemoji" viewBox="0 0 36 36"><defs><filter style="color-interpolation-filters:sRGB" id="b" width="1" height="1" x="0" y="0"><feColorMatrix result="color1" type="hueRotate" values="284"/><feColorMatrix result="color2" type="saturate" values="1"/></filter><filter style="color-interpolation-filters:sRGB" id="a" width="1" height="1" x="0" y="0"><feColorMatrix result="color1" type="hueRotate" values="284"/><feColorMatrix result="color2" type="saturate" values="1"/></filter></defs><path style="fill:#88c9f9;fill-opacity:1;stroke-width:.982887;filter:url(#a)" d="M17.85 6.245c-3.258 0-6.336 1.575-8.47 3.71-2.134 2.135-3.018 5.212-3.018 8.47 0 2.554.761 4.782 2.119 6.655L24.65 8.91c-1.912-1.53-4.225-2.666-6.8-2.666zm9.25 5.094L10.888 27.551c1.935 1.464 4.267 2.204 6.962 2.204 3.256 0 6.445-.616 8.58-2.75s3.208-5.323 3.208-8.58c0-2.705-.983-5.122-2.538-7.086z"/><path style="stroke-width:1.18339;fill:#0a62a5;fill-opacity:1;filter:url(#b)" d="M18.16 12.097c-3.154 0-5.6 2.568-5.6 5.721 0 .926.212 1.808.59 2.593l7.666-7.666a5.78 5.78 0 0 0-2.656-.648zm5.122 3.06-7.779 7.779c.785.439 1.687.69 2.657.69 3.153 0 5.798-2.654 5.798-5.808a5.58 5.58 0 0 0-.676-2.66z"/></svg>