<svg xmlns="http://www.w3.org/2000/svg" xmlns:svg="http://www.w3.org/2000/svg" id="svg10" width="800" height="800" aria-hidden="true" class="iconify iconify--twemoji" preserveAspectRatio="xMidYMid meet" role="img" version="1.1" viewBox="0 0 36 36"><path id="path4" fill="#fff" d="m 29.638321,18.382606 c 0,3.257274 -1.073309,6.446731 -3.208131,8.580571 -2.134822,2.133839 -5.324279,2.750108 -8.580571,2.750108 -3.256292,0 -5.984777,-1.077241 -8.1195992,-3.21108 -2.1348225,-2.13384 -3.3683411,-4.862325 -3.3683411,-8.119599 0,-3.257275 0.884595,-6.334683 3.0184346,-8.4695057 2.1338397,-2.1348225 5.2122307,-3.7103845 8.4695057,-3.7103845 3.257275,0 6.096825,1.8144026 8.231648,3.9482422 2.134822,2.13384 3.557054,4.974373 3.557054,8.231648 z" style="fill:#88c9f9;fill-opacity:1;stroke-width:.982887"/><path id="path8" fill="#292f33" d="m 23.95823,17.818306 c 0,3.153748 -2.644888,5.808102 -5.798635,5.808102 -3.153748,0 -5.599825,-2.654354 -5.599825,-5.808102 0,-3.153747 2.446077,-5.721714 5.599825,-5.721714 3.153747,0 5.798635,2.567967 5.798635,5.721714 z" style="stroke-width:1.18339;fill:#0a62a5;fill-opacity:1"/></svg>